<?xml version="1.0" standalone="no"?>
<!DOCTYPE svg PUBLIC "-//W3C//DTD SVG 20010904//EN"
 "http://www.w3.org/TR/2001/REC-SVG-20010904/DTD/svg10.dtd">
<svg version="1.0" xmlns="http://www.w3.org/2000/svg"
 width="512.000000pt" height="180.000000pt" viewBox="0 0 512.000000 180.000000"
 preserveAspectRatio="xMidYMid meet">

<g transform="translate(0.000000,180.000000) scale(0.100000,-0.100000)"
fill="#000000" stroke="none">
<path d="M162 1286 c-58 -19 -70 -54 -28 -87 52 -41 56 -63 56 -320 0 -148 -4
-240 -10 -244 -5 -3 -10 -15 -10 -25 0 -10 -13 -30 -30 -43 -37 -32 -38 -56
-2 -87 25 -23 35 -24 149 -24 145 0 173 10 173 61 0 18 -5 33 -10 33 -6 0 -19
15 -30 33 -16 26 -20 50 -20 124 0 82 2 93 21 107 26 18 73 4 95 -28 16 -25
39 -100 49 -161 3 -22 17 -63 31 -92 20 -41 33 -55 69 -72 67 -31 171 -24 213
16 17 16 16 73 -1 73 -29 0 -67 79 -67 140 0 46 -40 116 -82 141 -68 41 -70
64 -10 112 39 32 56 77 55 148 0 101 -41 155 -148 195 -29 10 -430 11 -463 0z
m339 -109 c28 -21 39 -54 39 -117 0 -72 -20 -113 -62 -131 -22 -9 -35 -9 -53
-1 -24 11 -25 15 -25 117 0 66 5 113 12 125 15 23 64 27 89 7z"/>
<path d="M3964 1287 c-62 -15 -99 -38 -124 -80 -27 -43 -26 -120 1 -186 21
-49 21 -52 4 -71 -10 -11 -24 -20 -32 -20 -9 0 -13 -14 -13 -45 0 -41 2 -45
25 -45 60 0 75 -53 56 -189 -7 -46 -13 -59 -44 -84 -44 -34 -46 -52 -11 -82
50 -43 277 -44 337 -3 39 28 31 73 -15 91 -38 14 -58 67 -58 153 0 89 13 114
62 114 21 0 27 6 32 31 13 64 10 69 -37 69 -41 0 -49 5 -120 74 -86 84 -97
114 -53 155 21 20 27 21 48 10 23 -12 48 -37 73 -72 7 -11 30 -21 53 -24 33
-4 42 -2 56 18 19 27 21 81 4 112 -36 68 -136 99 -244 74z"/>
<path d="M3551 1283 c-46 -6 -108 -49 -116 -80 -4 -16 0 -34 10 -49 13 -20 24
-24 68 -24 78 0 145 27 166 67 33 63 -22 100 -128 86z"/>
<path d="M1135 1039 c-56 -21 -118 -81 -152 -147 -20 -37 -23 -60 -23 -147 0
-59 4 -107 10 -110 6 -3 10 -13 10 -21 0 -27 53 -95 99 -127 42 -29 53 -32
127 -32 66 0 89 4 130 25 62 31 104 76 104 113 0 38 -24 44 -72 18 -25 -13
-58 -21 -89 -21 -42 0 -53 5 -84 35 -35 36 -51 74 -42 99 6 16 80 26 195 25
51 0 89 4 98 11 17 15 19 98 2 137 -30 70 -71 115 -125 139 -64 28 -119 29
-188 3z m130 -82 c20 -17 27 -32 27 -60 0 -21 -6 -44 -12 -52 -15 -18 -101
-20 -118 -3 -19 19 -15 92 6 110 37 33 63 34 97 5z"/>
<path d="M1729 1046 c-20 -6 -54 -23 -77 -38 -42 -28 -102 -105 -102 -132 0
-8 -4 -18 -10 -21 -14 -9 -12 -173 3 -215 23 -69 83 -140 141 -170 42 -22 180
-20 227 2 54 26 99 82 99 122 0 40 -20 61 -47 48 -52 -27 -94 -34 -126 -21
-140 55 -159 309 -24 309 27 0 46 -24 65 -79 16 -46 40 -71 67 -71 35 0 73 37
81 76 25 134 -140 240 -297 190z"/>
<path d="M2270 1038 c-68 -25 -115 -60 -136 -100 -30 -57 18 -107 71 -72 14 9
25 19 25 23 0 4 16 26 36 49 62 73 110 50 115 -53 4 -95 4 -95 -38 -95 -73 0
-169 -35 -209 -75 -25 -24 -34 -57 -34 -118 0 -60 3 -67 35 -103 35 -38 37
-39 108 -39 61 0 76 3 97 23 31 29 65 28 103 -4 26 -22 38 -25 74 -20 23 3 51
11 61 17 44 28 82 119 49 119 -27 0 -38 44 -46 193 -8 165 -19 202 -68 234
-71 47 -153 54 -243 21z m118 -356 c17 -55 -13 -133 -50 -132 -27 1 -68 52
-68 85 0 15 16 47 35 72 6 7 24 12 41 13 27 0 32 -4 42 -38z"/>
<path d="M2880 1036 c-133 -40 -190 -80 -175 -125 3 -10 17 -23 30 -29 39 -18
46 -54 47 -217 0 -195 -6 -236 -44 -275 -38 -40 -34 -67 17 -101 89 -61 258
-65 294 -8 11 19 9 25 -20 55 -27 28 -32 41 -32 79 0 58 13 74 48 55 35 -19
125 -19 161 0 60 31 104 90 133 179 38 117 17 266 -51 352 -23 29 -82 59 -116
59 -32 0 -117 -34 -128 -51 -12 -21 -46 -8 -57 21 -13 35 -11 35 -107 6z m201
-136 c60 -33 76 -220 24 -286 -18 -22 -30 -28 -59 -27 -55 2 -65 22 -66 127 0
155 35 221 101 186z"/>
<path d="M3635 1050 c-11 -4 -44 -13 -74 -20 -75 -18 -141 -54 -141 -79 0 -8
14 -29 31 -47 37 -38 46 -101 35 -236 -7 -75 -11 -88 -37 -116 -35 -37 -32
-61 8 -83 41 -22 230 -18 266 5 30 20 38 70 13 79 -8 3 -21 20 -30 38 -13 27
-16 70 -16 251 0 237 1 232 -55 208z"/>
<path d="M4365 1048 c-62 -10 -115 -39 -115 -64 0 -8 9 -22 21 -32 55 -45 60
-53 88 -124 4 -13 13 -35 20 -50 6 -16 16 -40 22 -55 6 -16 15 -36 20 -45 5
-10 9 -27 9 -38 0 -11 5 -20 10 -20 6 0 10 -7 10 -15 0 -8 4 -23 9 -33 5 -9
13 -28 19 -42 5 -14 15 -38 21 -53 25 -63 5 -127 -41 -127 -19 0 -31 6 -34 17
-3 10 -10 26 -15 35 -5 10 -9 23 -9 29 0 21 -29 39 -63 39 -44 0 -67 -32 -67
-93 0 -35 7 -51 34 -83 33 -38 35 -39 103 -39 43 0 81 6 99 15 28 15 84 68 84
82 0 4 6 13 13 20 25 26 49 89 97 248 78 260 99 306 156 341 49 30 45 67 -9
88 -34 13 -46 13 -95 0 -69 -18 -81 -35 -59 -82 22 -45 21 -93 -1 -136 -36
-71 -75 -62 -108 26 -15 37 -16 54 -7 97 14 65 5 81 -51 95 -51 13 -77 12
-161 -1z"/>
</g>
</svg>
